<?xml version="1.0" encoding="UTF-8" standalone="no"?>
<!DOCTYPE svg PUBLIC "-//W3C//DTD SVG 1.1//EN" "http://www.w3.org/Graphics/SVG/1.1/DTD/svg11.dtd">
<svg width="100%" height="100%" viewBox="0 0 1200 1200" version="1.1" xmlns="http://www.w3.org/2000/svg" xmlns:xlink="http://www.w3.org/1999/xlink" xml:space="preserve" xmlns:serif="http://www.serif.com/" style="fill-rule:evenodd;clip-rule:evenodd;stroke-linejoin:round;stroke-miterlimit:2;">
    <g transform="matrix(1,0,0,1,-7874.41,-2.41864)">
        <g id="Cog" transform="matrix(1,0,0,1,7874.41,2.41864)">
            <rect x="0" y="0" width="1200" height="1200" style="fill:none;"/>
            <g transform="matrix(1.35661,0,0,1.35661,-10886.4,-378.115)">
                <path d="M8544.2,327.502C8493.22,317.499 8440.78,317.499 8389.8,327.502C8378.97,378.221 8351.2,416.717 8306.49,442.989C8261.38,468.577 8214.16,473.378 8164.82,457.393C8130.67,496.543 8104.45,541.957 8087.62,591.109C8126.13,625.843 8145.59,669.14 8145.98,721C8145.59,772.86 8126.13,816.157 8087.62,850.891C8104.45,900.043 8130.67,945.457 8164.82,984.607C8214.16,968.622 8261.38,973.423 8306.49,999.011C8351.2,1025.28 8378.97,1063.78 8389.8,1114.5C8440.78,1124.5 8493.22,1124.5 8544.2,1114.5C8555.03,1063.78 8582.8,1025.28 8627.51,999.011C8672.62,973.423 8719.84,968.622 8769.18,984.607C8803.33,945.457 8829.55,900.043 8846.38,850.891C8807.87,816.157 8788.42,772.86 8788.02,721C8788.42,669.14 8807.87,625.843 8846.38,591.109C8829.55,541.957 8803.33,496.543 8769.18,457.393C8719.84,473.378 8672.62,468.577 8627.51,442.989C8582.8,416.717 8555.03,378.221 8544.2,327.502ZM8467,553.95C8559.2,553.95 8634.05,628.803 8634.05,721C8634.05,813.197 8559.2,888.05 8467,888.05C8374.8,888.05 8299.95,813.197 8299.95,721C8299.95,628.803 8374.8,553.95 8467,553.95Z"/>
            </g>
        </g>
    </g>
</svg>
